<svg width="20" height="20" viewBox="0 0 20 20" fill="none" xmlns="http://www.w3.org/2000/svg">
<path d="M6 0H2C0.895431 0 0 0.895431 0 2V6C0 7.10457 0.895431 8 2 8H6C7.10457 8 8 7.10457 8 6V2C8 0.895431 7.10457 0 6 0Z" fill="#9DA3AE"/>
<path d="M18 0H14C12.8954 0 12 0.895431 12 2V6C12 7.10457 12.8954 8 14 8H18C19.1046 8 20 7.10457 20 6V2C20 0.895431 19.1046 0 18 0Z" fill="#9DA3AE"/>
<path d="M18 12H14C12.8954 12 12 12.8954 12 14V18C12 19.1046 12.8954 20 14 20H18C19.1046 20 20 19.1046 20 18V14C20 12.8954 19.1046 12 18 12Z" fill="#9DA3AE"/>
<path d="M6 12H2C0.895431 12 0 12.8954 0 14V18C0 19.1046 0.895431 20 2 20H6C7.10457 20 8 19.1046 8 18V14C8 12.8954 7.10457 12 6 12Z" fill="#9DA3AE"/>
</svg>
