<svg width="18" height="20" viewBox="0 0 18 20" fill="none" xmlns="http://www.w3.org/2000/svg">
<path fill-rule="evenodd" clip-rule="evenodd" d="M0.772119 5.89943C0.284946 6.27834 0 6.86096 0 7.47814V17.5C0 18.0304 0.210714 18.5391 0.585786 18.9142C0.960859 19.2893 1.46957 19.5 2 19.5H7V13.5C7 12.3954 7.89543 11.5 9 11.5C10.1046 11.5 11 12.3954 11 13.5V19.5H16C16.5304 19.5 17.0391 19.2893 17.4142 18.9142C17.7893 18.5391 18 18.0304 18 17.5V7.47814C18 6.86096 17.7151 6.27834 17.2279 5.89943L10.2279 0.454988C9.50566 -0.10674 8.49434 -0.106741 7.77212 0.454986L0.772119 5.89943Z" fill="#9DA3AE"/>
</svg>
